<svg width="800" height="800" viewBox="0 0 800 800" fill="none" xmlns="http://www.w3.org/2000/svg">
<g clip-path="url(#clip0_11_2)">
<path d="M530.393 400.01L192.468 62.0776C178.267 47.8764 178.267 24.8533 192.468 10.6521C206.669 -3.54908 229.692 -3.54908 243.893 10.6546L607.53 374.301C614.352 381.118 618.182 390.366 618.182 400.01C618.182 409.656 614.349 418.904 607.53 425.724L243.893 789.35C236.795 796.451 227.488 800 218.182 800C208.875 800 199.568 796.451 192.468 789.348C178.267 775.147 178.267 752.124 192.468 737.923L530.393 400.01Z" fill="black"/>
</g>
<defs>
<clipPath id="clip0_11_2">
<rect width="800" height="800" fill="white" transform="matrix(-1 0 0 1 800 0)"/>
</clipPath>
</defs>
</svg>
